<svg id="visual" viewBox="0 0 600 300" width="600" height="300" xmlns="http://www.w3.org/2000/svg" xmlns:xlink="http://www.w3.org/1999/xlink" version="1.1"><g><g transform="translate(515 230)"><path d="M61.7 -17.7C69.7 4.6 58.8 35.3 38.4 49.4C17.9 63.4 -12.2 60.8 -33.3 45.5C-54.5 30.2 -66.8 2.3 -59.7 -18.7C-52.7 -39.6 -26.3 -53.6 0.3 -53.7C26.9 -53.8 53.7 -40 61.7 -17.7Z" stroke="#f0fcf9" fill="none" stroke-width="20"></path></g><g transform="translate(261 113)"><path d="M46.7 -14C53.6 5.8 47.2 31 31.2 42.5C15.2 54.1 -10.5 51.9 -27.7 39.2C-45 26.4 -53.7 3.1 -47.7 -15.7C-41.7 -34.4 -20.8 -48.5 -0.4 -48.3C20 -48.2 39.9 -33.8 46.7 -14Z" stroke="#f0fcf9" fill="none" stroke-width="20"></path></g><g transform="translate(464 21)"><path d="M55.1 -19.8C61.7 2.5 50.8 28.7 31.6 42.3C12.5 55.9 -14.9 57 -31.8 44.6C-48.6 32.1 -54.9 6.1 -47.9 -16.8C-40.9 -39.7 -20.4 -59.5 1.9 -60.1C24.2 -60.7 48.5 -42.2 55.1 -19.8Z" stroke="#f0fcf9" fill="none" stroke-width="20"></path></g><g transform="translate(105 274)"><path d="M54.1 -19C60.2 1.2 48.4 25.8 28.8 40.3C9.1 54.7 -18.5 59 -34 47.6C-49.5 36.1 -53 8.9 -45.4 -13.6C-37.7 -36 -18.8 -53.6 2.6 -54.4C24 -55.2 48 -39.3 54.1 -19Z" stroke="#f0fcf9" fill="none" stroke-width="20"></path></g></g></svg>