<?xml version="1.0" standalone="no"?>
<svg viewBox="0 0 200 200" xmlns="http://www.w3.org/2000/svg">
  <path fill="#889498" d="M36.5,-62.2C50.4,-55.1,67.1,-51.7,74.1,-42C81,-32.2,78.3,-16.1,72.9,-3.1C67.5,9.9,59.4,19.8,50.8,26.5C42.1,33.3,32.8,36.9,24.2,40.7C15.6,44.4,7.8,48.3,0.5,47.5C-6.9,46.7,-13.8,41.3,-20.8,36.6C-27.8,32,-34.9,28.1,-45.4,22.1C-55.9,16.2,-69.7,8.1,-77,-4.2C-84.3,-16.5,-85,-33,-79.2,-47C-73.3,-60.9,-60.8,-72.4,-46.5,-79.3C-32.2,-86.3,-16.1,-88.9,-2.4,-84.6C11.2,-80.4,22.5,-69.4,36.5,-62.2Z" transform="translate(100 100)" />
</svg>
