<svg id="visual" viewBox="0 0 900 600" width="900" height="600" xmlns="http://www.w3.org/2000/svg" xmlns:xlink="http://www.w3.org/1999/xlink" version="1.1"><g><g transform="translate(255 404)"><path d="M92.4 -56.4C108.2 -25.9 101.6 14.5 82.5 44.4C63.4 74.3 31.7 93.7 -3.2 95.6C-38.1 97.4 -76.2 81.7 -91.8 53.9C-107.3 26.1 -100.3 -13.9 -81.2 -46.2C-62.1 -78.6 -31.1 -103.4 3.6 -105.5C38.3 -107.6 76.5 -86.9 92.4 -56.4Z" stroke="#f0fcf9" fill="none" stroke-width="20"></path></g><g transform="translate(821 354)"><path d="M67.4 -39.2C82.8 -12.2 87.7 20.7 74.8 45.8C61.8 71 30.9 88.4 2.4 87C-26.1 85.7 -52.3 65.5 -65.6 40.1C-78.9 14.8 -79.5 -15.7 -66.4 -41.4C-53.3 -67.1 -26.7 -87.9 -0.3 -87.7C26 -87.5 51.9 -66.3 67.4 -39.2Z" stroke="#f0fcf9" fill="none" stroke-width="20"></path></g><g transform="translate(291 2)"><path d="M76.3 -42C92.3 -16.3 94.1 19.5 79.1 44.5C64 69.4 32 83.4 1.8 82.3C-28.3 81.3 -56.6 65.2 -72.9 39.6C-89.1 14 -93.2 -21.1 -79 -45.8C-64.9 -70.4 -32.4 -84.7 -1.2 -84C30.1 -83.3 60.3 -67.8 76.3 -42Z" stroke="#f0fcf9" fill="none" stroke-width="20"></path></g><g transform="translate(6 509)"><path d="M57.4 -35.3C67.2 -16.1 63.1 9 51.2 28.9C39.3 48.7 19.7 63.4 -1.6 64.3C-22.9 65.3 -45.8 52.4 -56.8 33C-67.9 13.6 -67.2 -12.4 -55.8 -32.5C-44.3 -52.7 -22.2 -67.1 0.8 -67.5C23.8 -68 47.6 -54.6 57.4 -35.3Z" stroke="#f0fcf9" fill="none" stroke-width="20"></path></g></g></svg>